<?xml version="1.0" encoding="UTF-8"?>
<svg id="Layer_2" data-name="Layer 2" xmlns="http://www.w3.org/2000/svg" viewBox="0 0 114.92 114.92">
  <defs>
    <style>
      .cls-1 {
        fill: none;
        stroke: #2b2b2b;
        stroke-miterlimit: 10;
      }

      .cls-2 {
        font-size: 9.65px;
      }

      .cls-2, .cls-3 {
        fill: #26322e;
        font-family: Poppins-Bold, Poppins;
        font-weight: 700;
      }

      .cls-4 {
        fill: #fff3d9;
        stroke-width: 0px;
      }

      .cls-3 {
        font-size: 13.4px;
      }
    </style>
  </defs>
  <g id="OBJECTS">
    <path class="cls-4" d="M114.92,57.46c0,31.73-25.73,57.46-57.46,57.46S0,89.19,0,57.46,25.73,0,57.46,0s57.46,25.72,57.46,57.46Z"/>
    <text class="cls-2" transform="translate(43.56 103.75)"><tspan x="0" y="0">FREE</tspan></text>
    <g>
      <path class="cls-1" d="M42.11,61.92s9.73-6.15,11.75,4.12c1.5,7.62,8.87.12,8.87,9"/>
      <path class="cls-1" d="M77.88,68.26c1.44-3.94,1.75-9.42,0-16.21,9.83,0,6.87-12.37-4.08-18.79,0,0-7.25-25.38-11.92-23.71-4.67,1.67,6.75,25.5,6.75,25.5,0,0-13.73-23.26-19.33-21.29-3.67,1.29,3.21,13.04,14.71,24.04-16.17-1.83-30.71,12.87-30.71,27.29-5-2.67-12.33-3.14-12.33,3.33,0,5.75,9,6.83,9,6.83h34.85l-.06.04h18.25c0-6.12-5.01-3.19-5.13-7.03Z"/>
    </g>
    <text class="cls-3" transform="translate(19.94 91.3)"><tspan x="0" y="0">CRUELTY</tspan></text>
    <g>
      <g>
        <line class="cls-1" x1="35.35" y1="30.75" x2="25.6" y2="21"/>
        <line class="cls-1" x1="28.85" y1="37.75" x2="20.18" y2="33.08"/>
        <line class="cls-1" x1="22.35" y1="44.75" x2="17.35" y2="43.75"/>
      </g>
      <g>
        <line class="cls-1" x1="83.85" y1="30.75" x2="93.6" y2="21"/>
        <line class="cls-1" x1="90.35" y1="37.75" x2="99.01" y2="33.08"/>
        <line class="cls-1" x1="96.85" y1="44.75" x2="101.85" y2="43.75"/>
      </g>
    </g>
  </g>
</svg>