<?xml version="1.0" encoding="UTF-8"?>
<svg id="Layer_2" data-name="Layer 2" xmlns="http://www.w3.org/2000/svg" viewBox="0 0 404.35 404.35">
  <defs>
    <style>
      .cls-1 {
        fill: #1d1d1b;
      }

      .cls-1, .cls-2 {
        stroke-width: 0px;
      }

      .cls-2 {
        fill: #fff;
      }

      .cls-3 {
        fill: none;
        stroke: #1d1d1b;
        stroke-miterlimit: 10;
        stroke-width: 7px;
      }
    </style>
  </defs>
  <g id="objects">
    <g>
      <path class="cls-3" d="M400.85,202.18c0,109.73-88.95,198.68-198.68,198.68h0C92.45,400.85,3.5,311.9,3.5,202.18h0C3.5,92.45,92.45,3.5,202.18,3.5h0c109.73,0,198.68,88.95,198.68,198.68h0Z"/>
      <g>
        <path class="cls-1" d="M256.08,97.96h-107.81c-27.78,0-50.31,22.53-50.31,50.31v107.81c0,27.78,22.53,50.31,50.31,50.31h107.81c27.78,0,50.31-22.53,50.31-50.31v-107.81c0-27.78-22.53-50.31-50.31-50.31ZM288.42,252.49c0,19.84-16.1,35.94-35.94,35.94h-100.62c-19.84,0-35.94-16.1-35.94-35.94v-100.62c0-19.84,16.1-35.94,35.94-35.94h100.62c19.84,0,35.94,16.1,35.94,35.94v100.62Z"/>
        <path class="cls-1" d="M202.28,148.27c-29.75,0-53.9,24.15-53.9,53.9s24.15,53.9,53.9,53.9,53.9-24.15,53.9-53.9-24.15-53.9-53.9-53.9ZM202.28,238.11c-19.8,0-35.94-16.14-35.94-35.94s16.14-35.94,35.94-35.94,35.94,16.14,35.94,35.94-16.14,35.94-35.94,35.94Z"/>
      </g>
      <path class="cls-2" d="M259.78,155.46c-5.94,0-10.78-4.84-10.78-10.78s4.84-10.78,10.78-10.78,10.78,4.84,10.78,10.78-4.84,10.78-10.78,10.78Z"/>
    </g>
  </g>
</svg>
