<?xml version="1.0" encoding="UTF-8"?>
<svg id="Layer_2" data-name="Layer 2" xmlns="http://www.w3.org/2000/svg" viewBox="0 0 860.25 860.25">
  <defs>
    <style>
      .cls-1 {
        fill: #dad3c1;
      }

      .cls-1, .cls-2 {
        stroke-width: 0px;
      }

      .cls-2 {
        fill: #fff;
      }
    </style>
  </defs>
  <g id="Objects">
    <g>
      <circle class="cls-1" cx="430.12" cy="430.12" r="430.12"/>
      <g>
        <path class="cls-2" d="M657.55,374.36l48.9,84.7c10.18,17.63,9.58,39.19-1.55,56.28-10.08,15.47-26.49,24.35-45,24.35h-50.33l-59.59-103.22,107.58-62.11ZM628.02,637.4c-14.42,22.89-39.19,36.56-66.24,36.56h-41.74c-2.77,0-5.02,2.25-5.02,5.02v36.78l-71.43-103.91,71.43-103.91v36.78c0,2.77,2.25,5.02,5.02,5.02h139.86c9.56,0,18.79-2.11,27.13-6.02l-59.01,93.68Z"/>
        <path class="cls-2" d="M159.38,431.01l20.87-36.15c.67-1.15.85-2.52.5-3.81-.34-1.29-1.19-2.38-2.34-3.05l-31.85-18.39,125.7-9.91,54.28,113.81-31.85-18.39c-2.4-1.39-5.47-.56-6.86,1.84l-43.31,75.03-26.61,46.1c-4.78,8.28-7.57,17.33-8.35,26.51l-51.63-97.95c-12.61-23.94-12.07-52.22,1.46-75.65ZM273.15,663.75c-20.35,0-38.73-11.3-47.97-29.48h0c-8.36-16.47-7.85-35.11,1.41-51.15l25.17-43.59h119.19s0,124.22,0,124.22h-97.8Z"/>
        <path class="cls-2" d="M369.6,343.81l-109.81-58.09,45.73-86.45c9.37-17.72,27.54-28.62,47.56-28.62.31,0,.62,0,.93,0,18.47.31,34.71,9.49,44.55,25.17l26.76,42.63-55.73,105.36ZM448.71,335.42l31.15-19.56c2.35-1.47,3.06-4.57,1.58-6.92l-46.06-73.37-28.3-45.08c-5.08-8.1-11.78-14.79-19.53-19.78l110.72.17c27.06.04,51.8,13.75,66.19,36.66l22.19,35.35c1.47,2.35,4.57,3.06,6.92,1.58l31.15-19.56-50.03,115.75-125.98-5.24Z"/>
      </g>
    </g>
  </g>
</svg>