<?xml version="1.0" encoding="UTF-8"?>
<svg id="Layer_2" data-name="Layer 2" xmlns="http://www.w3.org/2000/svg" viewBox="0 0 404.35 404.35">
  <defs>
    <style>
      .cls-1 {
        fill: #1d1d1b;
        stroke-width: 0px;
      }

      .cls-2 {
        fill: none;
        stroke: #1d1d1b;
        stroke-miterlimit: 10;
        stroke-width: 7px;
      }
    </style>
  </defs>
  <g id="objects">
    <g>
      <path class="cls-2" d="M400.85,202.18c0,109.73-88.95,198.68-198.68,198.68h0C92.45,400.85,3.5,311.9,3.5,202.18h0C3.5,92.45,92.45,3.5,202.18,3.5h0c109.73,0,198.68,88.95,198.68,198.68h0Z"/>
      <path class="cls-1" d="M287.8,117.99H116.56c-16.92,0-30.64,13.72-30.64,30.63v107.1c0,16.92,13.72,30.63,30.64,30.63h171.24c16.91,0,30.63-13.71,30.63-30.63v-107.1c0-16.91-13.72-30.63-30.63-30.63ZM229.68,209.57l-47.62,23.8c-5.5,2.75-11.96-1.24-11.96-7.38v-47.6c0-6.14,6.47-10.13,11.96-7.39l47.62,23.8c6.08,3.04,6.08,11.73,0,14.77Z"/>
    </g>
  </g>
</svg>
